# xmcd CD database file
#
# Track frame offsets:
#	150
#	19000
#	30648
#	44038
#	62484
#	76344
#	91883
#	109403
#	118418
#	129927
#	146516
#	159878
#
# Disc length: 2299 seconds
#
# Revision: 0
# Processed by: cddbd v1.5.1PL2 Copyright (c) Steve Scherf et al.
# Submitted via: CDex 1.51
#
DISCID=9a08f90c
DTITLE=SEAMUS McGEE - COME HOME DANNY BOY
DYEAR=1900
DGENRE=Country
TTITLE0=COME HOME DANNY BOY
TTITLE1=I WON'T COME IN WHILE HE'S THERE
TTITLE2=IF I COULD MAKE A LIVING LOVING YOU
TTITLE3=IRELAND '88'
TTITLE4=LONELY WOMEN MAKE GOOD LOVERS
TTITLE5=DONEGAL EMIGRANT
TTITLE6=WAKE UP
TTITLE7=WORLD YOU LEFT BEHIND
TTITLE8=SUNNY SIDE OF THE MOUNTAIN
TTITLE9=WEDDING SONG
TTITLE10=NOW I'M 64
TTITLE11=1982
EXTD=
EXTT0=
EXTT1=
EXTT2=
EXTT3=
EXTT4=
EXTT5=
EXTT6=
EXTT7=
EXTT8=
EXTT9=
EXTT10=
EXTT11=
PLAYORDER=
